<?xml-stylesheet type="text/css" href="../css/theme.css" ?><svg xmlns="http://www.w3.org/2000/svg" viewBox="0 0 408.92 131.31"><defs><style>.cls-1{fill:#eeeeee;}.cls-2{fill:#eeeeee;}.cls-3{fill:none;stroke:#eeeeee;stroke-width:1.4px;}</style></defs><title>Logo_Series_Tagline_Horizontal</title><g id="tag"><g id="big"><path id="B" class="cls-1" d="M427.64,313.69h3.41v6.26h0a3.86,3.86,0,0,1,3.32-1.55c2.63,0,4.53,2.18,4.51,5.54,0,3.95-2.49,5.92-5,5.92a3.62,3.62,0,0,1-3.3-1.77h0l-.13,1.53h-2.89c0-.72.09-2,.09-3.28ZM431.05,325a2.49,2.49,0,0,0,.07.61,2.09,2.09,0,0,0,2,1.61c1.46,0,2.36-1.12,2.36-3.1,0-1.71-.76-3.05-2.36-3.05a2.11,2.11,0,0,0-2,1.68,2.81,2.81,0,0,0-.07.63Z" transform="translate(-52.75 -203)"/><path id="I" class="cls-1" d="M443.19,317.21a1.82,1.82,0,1,1,2-1.82,1.79,1.79,0,0,1-2,1.82Zm-1.68,12.41v-11h3.41v11Z" transform="translate(-52.75 -203)"/><path id="G" class="cls-1" d="M458.5,328c0,2.11-.43,3.84-1.68,4.94a6.67,6.67,0,0,1-4.44,1.35,8.78,8.78,0,0,1-4-.83l.67-2.6a6.66,6.66,0,0,0,3.19.83,2.61,2.61,0,0,0,2.85-2.9v-.7h0a3.55,3.55,0,0,1-3,1.41c-2.72,0-4.64-2.2-4.64-5.34,0-3.55,2.27-5.79,5-5.79a3.31,3.31,0,0,1,3,1.55h0l.11-1.3h3c0,.72-.09,1.64-.09,3.28Zm-3.41-4.91a2.88,2.88,0,0,0-.07-.63,1.87,1.87,0,0,0-1.84-1.5c-1.26,0-2.24,1.12-2.24,3.12,0,1.64.81,2.92,2.22,2.92a1.86,1.86,0,0,0,1.82-1.37,3.12,3.12,0,0,0,.11-.92Z" transform="translate(-52.75 -203)"/></g><g id="something"><path id="S" class="cls-2" d="M317.1,327.62a5.58,5.58,0,0,0,2.63.76c1.41,0,2.09-.7,2.09-1.62s-.56-1.46-2-2c-2-.72-2.89-1.77-2.89-3.07,0-1.75,1.44-3.19,3.75-3.19a5,5,0,0,1,2.65.67l-.47,1.41a4.43,4.43,0,0,0-2.22-.63c-1.17,0-1.79.67-1.79,1.48s.63,1.32,2,1.86c1.86.7,2.85,1.64,2.85,3.28,0,1.93-1.5,3.28-4,3.28a6.19,6.19,0,0,1-3.05-.76Z" transform="translate(-52.75 -203)"/><path id="O" class="cls-2" d="M331.13,329.87c-2.92,0-5.21-2.15-5.21-5.59,0-3.64,2.4-5.77,5.39-5.77s5.23,2.27,5.23,5.56c0,4-2.81,5.79-5.39,5.79Zm.07-1.48c1.88,0,3.3-1.77,3.3-4.24,0-1.84-.92-4.15-3.25-4.15s-3.32,2.15-3.32,4.22c0,2.38,1.35,4.17,3.25,4.17Z" transform="translate(-52.75 -203)"/><path id="M" class="cls-2" d="M339.48,321.7c0-1.15,0-2-.09-2.94h1.73l.09,1.75h.07a3.76,3.76,0,0,1,3.43-2,3.2,3.2,0,0,1,3.05,2.18h0a4.27,4.27,0,0,1,1.23-1.41,3.64,3.64,0,0,1,2.38-.76c1.46,0,3.59.94,3.59,4.71v6.39h-1.93v-6.15c0-2.11-.78-3.34-2.36-3.34a2.59,2.59,0,0,0-2.36,1.77,3.53,3.53,0,0,0-.16,1v6.73h-1.93v-6.51c0-1.75-.76-3-2.27-3a2.94,2.94,0,0,0-2.6,2.94v6.55h-1.93Z" transform="translate(-52.75 -203)"/><path id="E" class="cls-2" d="M359.76,324.53a3.46,3.46,0,0,0,3.7,3.77,7.48,7.48,0,0,0,3-.54l.36,1.39a8.85,8.85,0,0,1-3.64.7c-3.32,0-5.34-2.22-5.34-5.48s2-5.88,5.12-5.88c3.55,0,4.47,3.12,4.47,5.12a5.19,5.19,0,0,1-.07.94Zm5.77-1.41c0-1.23-.52-3.21-2.71-3.21-2,0-2.87,1.84-3,3.21Z" transform="translate(-52.75 -203)"/><path id="T" class="cls-2" d="M372.71,316.16v2.6h2.83v1.5h-2.83v5.86c0,1.35.38,2.11,1.48,2.11a3.71,3.71,0,0,0,1.15-.13l.09,1.5a5.4,5.4,0,0,1-1.75.27,2.82,2.82,0,0,1-2.13-.83,4.24,4.24,0,0,1-.76-2.85v-5.92H369.1v-1.5h1.68v-2Z" transform="translate(-52.75 -203)"/><path id="H" class="cls-2" d="M378.21,313.69h2v6.78h0a3.52,3.52,0,0,1,1.41-1.39,3.84,3.84,0,0,1,2-.56c1.46,0,3.79.9,3.79,4.64v6.46h-2v-6.24c0-1.77-.65-3.23-2.51-3.23a2.86,2.86,0,0,0-2.65,2,2.38,2.38,0,0,0-.13.94v6.55h-2Z" transform="translate(-52.75 -203)"/><path id="I-2" data-name="I" class="cls-2" d="M392.05,316.76a1.27,1.27,0,0,1,0-2.54,1.21,1.21,0,0,1,1.26,1.26,1.24,1.24,0,0,1-1.28,1.28Zm-.94,12.86V318.76h2v10.86Z" transform="translate(-52.75 -203)"/><path id="N" class="cls-2" d="M396.81,321.7c0-1.15,0-2-.09-2.94h1.75l.11,1.77h0a4,4,0,0,1,3.59-2c1.5,0,3.84.9,3.84,4.62v6.49h-2v-6.26c0-1.75-.65-3.23-2.51-3.23a2.85,2.85,0,0,0-2.65,2,2.92,2.92,0,0,0-.13.92v6.55h-2Z" transform="translate(-52.75 -203)"/><path id="G-2" data-name="G" class="cls-2" d="M419,328c0,2.51-.52,4-1.55,5a6,6,0,0,1-4,1.3,7,7,0,0,1-3.61-.9l.49-1.53a5.92,5.92,0,0,0,3.19.88c2,0,3.5-1.05,3.5-3.82v-1.19h0a3.85,3.85,0,0,1-3.45,1.82c-2.69,0-4.62-2.29-4.62-5.32,0-3.68,2.4-5.74,4.91-5.74a3.63,3.63,0,0,1,3.39,1.86h0l.07-1.62h1.75c-.07.76-.09,1.64-.09,3Zm-2-5a2.78,2.78,0,0,0-.11-.88,2.82,2.82,0,0,0-2.76-2.11c-1.88,0-3.23,1.59-3.23,4.13,0,2.11,1.1,3.9,3.21,3.9a2.84,2.84,0,0,0,2.74-2A3.24,3.24,0,0,0,417,325Z" transform="translate(-52.75 -203)"/></g><g id="start"><path id="S-2" data-name="S" class="cls-2" d="M267.22,327.62a5.58,5.58,0,0,0,2.63.76c1.41,0,2.09-.7,2.09-1.62s-.56-1.46-2-2c-2-.72-2.89-1.77-2.89-3.07,0-1.75,1.44-3.19,3.75-3.19a5,5,0,0,1,2.65.67L273,320.6a4.43,4.43,0,0,0-2.22-.63c-1.17,0-1.79.67-1.79,1.48s.63,1.32,2,1.86c1.86.7,2.85,1.64,2.85,3.28,0,1.93-1.5,3.28-4,3.28a6.19,6.19,0,0,1-3.05-.76Z" transform="translate(-52.75 -203)"/><path id="T-1" class="cls-2" d="M279.2,316.16v2.6H282v1.5H279.2v5.86c0,1.35.38,2.11,1.48,2.11a3.71,3.71,0,0,0,1.15-.13l.09,1.5a5.4,5.4,0,0,1-1.75.27A2.82,2.82,0,0,1,278,329a4.25,4.25,0,0,1-.76-2.85v-5.92h-1.68v-1.5h1.68v-2Z" transform="translate(-52.75 -203)"/><path id="A" class="cls-2" d="M292.35,327a18.2,18.2,0,0,0,.16,2.6h-1.77l-.18-1.37h-.07a4,4,0,0,1-3.32,1.61,3.09,3.09,0,0,1-3.32-3.12c0-2.63,2.33-4.06,6.53-4v-.22a2.23,2.23,0,0,0-2.47-2.51,5.22,5.22,0,0,0-2.85.81l-.45-1.32a7,7,0,0,1,3.59-.94c3.34,0,4.15,2.27,4.15,4.44Zm-1.93-2.94c-2.16,0-4.6.34-4.6,2.45a1.73,1.73,0,0,0,1.84,1.88,2.74,2.74,0,0,0,2.67-1.82,2,2,0,0,0,.09-.63Z" transform="translate(-52.75 -203)"/><path id="R" class="cls-2" d="M296,322.15c0-1.28,0-2.38-.09-3.39h1.73l.09,2.13h.07a3.29,3.29,0,0,1,3-2.38,2.07,2.07,0,0,1,.54.07v1.84a6.19,6.19,0,0,0-.7,0,2.77,2.77,0,0,0-2.65,2.51,6.15,6.15,0,0,0-.07.94v5.79h-2Z" transform="translate(-52.75 -203)"/><path id="T-2" class="cls-2" d="M306.67,316.16v2.6h2.83v1.5h-2.83v5.86c0,1.35.38,2.11,1.48,2.11a3.7,3.7,0,0,0,1.14-.13l.09,1.5a5.39,5.39,0,0,1-1.75.27,2.81,2.81,0,0,1-2.13-.83,4.24,4.24,0,0,1-.76-2.85v-5.92h-1.68v-1.5h1.68v-2Z" transform="translate(-52.75 -203)"/></g></g><g id="ewu"><line id="line" class="cls-3" x1="406.07" y1="101.81" x2="127.45" y2="101.81"/><g id="university"><path id="U" class="cls-1" d="M329,289.09c0,1.76.65,3,2.5,3s2.94-.6,2.94-3.44v-4.89a13.47,13.47,0,0,0-.05-1.54c-.07-.53-.36-.74-1.52-.78v-.69H337v.69c-1.74.05-1.54.56-1.54,2.32V289a4.36,4.36,0,0,1-4.66,4.66c-4.4,0-5.67-2-5.67-5V282.7a2.7,2.7,0,0,0-.07-.8c-.07-.25-.65-.42-1.56-.45v-.69h7.07v.69c-.89,0-1.47.2-1.54.45a2.7,2.7,0,0,0-.07.8v6.39Z" transform="translate(-52.75 -203)"/><path id="N-2" data-name="N" class="cls-1" d="M349,293.44a111.85,111.85,0,0,0-6.61-9.06h0v6a10.35,10.35,0,0,0,.05,1.54c.07.52.38.74,2.1.78v.69h-4.8v-.69c1.16,0,1.43-.25,1.5-.78a13.18,13.18,0,0,0,.07-1.54v-7.17a2.88,2.88,0,0,0-2.61-1.81v-.69h5.63c1.49,2.28,4.31,6,6.27,8.42h0v-5.42a13.17,13.17,0,0,0-.07-1.54c-.07-.53-.34-.74-2.1-.78v-.69h4.82v.69c-1.14,0-1.45.25-1.52.78a10.3,10.3,0,0,0-.06,1.54v9.67Z" transform="translate(-52.75 -203)"/><path id="I-1" class="cls-1" d="M360.4,291.5a2.7,2.7,0,0,0,.07.8c.07.25.65.42,1.54.45v.69h-7.07v-.69c.91,0,1.49-.2,1.56-.45a2.6,2.6,0,0,0,.07-.8v-8.8a2.61,2.61,0,0,0-.07-.8c-.07-.25-.65-.42-1.56-.45v-.69H362v.69c-.89,0-1.47.2-1.54.45a2.7,2.7,0,0,0-.07.8v8.8Z" transform="translate(-52.75 -203)"/><path id="V" class="cls-1" d="M370.31,281.45c-.8,0-1.2.38-1.12.71.91,2.77,1.78,5.31,2.75,8,.83-2.28,1.65-4.58,2.48-6.86.56-1.56-.09-1.79-1.11-1.79v-.69h4.22v.69a2,2,0,0,0-1.81,1.27c-1.3,3.59-2.61,7.14-3.88,10.73h-2.66c-.61-1.81-3.1-8.9-3.44-9.69s-1.25-2.3-2.32-2.3v-.69h6.88v.69Z" transform="translate(-52.75 -203)"/><path id="E-2" data-name="E" class="cls-1" d="M378.9,292.75c.89,0,1.47-.2,1.54-.45a2.64,2.64,0,0,0,.07-.8v-8.8a2.65,2.65,0,0,0-.07-.8c-.07-.25-.65-.42-1.54-.45v-.69h10.2v2.91h-.56c-.38-1.18-1-2-2.17-2h-2v4.73h1.45a1.65,1.65,0,0,0,1.58-1.92h.56v4.77h-.56c0-.87-.36-1.94-1.58-1.94h-1.45v4c0,1.21.62,1.27,1.85,1.27a4.08,4.08,0,0,0,3.52-2.39h.56l-.54,3.3H378.9v-.69Z" transform="translate(-52.75 -203)"/><path id="R-2" data-name="R" class="cls-1" d="M397.84,287h.87c1.65,0,1.9-1.65,1.9-2.79,0-1.94-.56-2.59-1.72-2.59h-1.05V287Zm-5.45-6.27h8.13c2.43,0,4.22,1,4.22,3.39a3.61,3.61,0,0,1-2.92,3.3c1.4,1.9,3,3.79,4.42,5.51v.47H402.4c-1.18,0-2.45-3.57-3.8-5.51h-.76v3.59a2.65,2.65,0,0,0,.07.8c.07.25.65.42,1.54.45v.69h-7.06v-.69c.91,0,1.49-.2,1.56-.45a2.7,2.7,0,0,0,.07-.8v-8.8a2.7,2.7,0,0,0-.07-.8c-.07-.25-.65-.42-1.56-.45v-.69Z" transform="translate(-52.75 -203)"/><path id="S-3" data-name="S" class="cls-1" d="M416.28,283.75c-.56-1-1.21-2.43-2.63-2.43a1.51,1.51,0,0,0-1.36,1.7c0,1.29,1.11,1.7,3.32,3.42,1.77,1.36,2.3,2.48,2.3,3.66,0,2.35-2.21,3.55-5.29,3.55a10.55,10.55,0,0,1-4.15-.58.25.25,0,0,1-.13-.25v-3h.56c.42,1.07,1,3,2.75,3a2.11,2.11,0,0,0,2.1-2.16c0-1.2-.35-1.83-2.63-3.22-1.94-1.2-2.94-2.67-2.94-3.68,0-2,1.56-3.28,5.15-3.28a13.35,13.35,0,0,1,3.32.27.28.28,0,0,1,.18.25v2.68Z" transform="translate(-52.75 -203)"/><path id="I-2-2" data-name="I-2" class="cls-1" d="M425.74,291.5a2.65,2.65,0,0,0,.07.8c.07.25.65.42,1.54.45v.69h-7.07v-.69c.9,0,1.48-.2,1.56-.45a2.56,2.56,0,0,0,.08-.8v-8.8a2.56,2.56,0,0,0-.08-.8c-.07-.25-.65-.42-1.56-.45v-.69h7.07v.69c-.89,0-1.47.2-1.54.45a2.65,2.65,0,0,0-.07.8v8.8Z" transform="translate(-52.75 -203)"/><path id="T-2-2" data-name="T" class="cls-1" d="M437.35,291.5a2.65,2.65,0,0,0,.07.8c.07.25.65.42,1.54.45v.69h-7.07v-.69c.91,0,1.49-.2,1.56-.45a2.65,2.65,0,0,0,.07-.8v-9.84h-1.34c-1.54,0-2,.83-2.74,1.87h-.56l.51-2.77h12.08l.51,2.77h-.56c-.78-1-1.21-1.87-2.73-1.87h-1.34v9.84Z" transform="translate(-52.75 -203)"/><path id="Y" class="cls-1" d="M454,293.44h-7.07v-.69c.89,0,1.47-.2,1.54-.45a2.7,2.7,0,0,0,.07-.8v-2.7l-2.88-5.94a2.14,2.14,0,0,0-2.14-1.41v-.69h6.67v.69c-1.38,0-1.25.45-.8,1.41l2.32,4.75,2.52-4.62c.62-1.14-.11-1.54-1.18-1.54v-.69h4.13v.69a1.3,1.3,0,0,0-1.38.89l-2.9,5.27a3.78,3.78,0,0,0-.54,1.78v2.12a2.7,2.7,0,0,0,.07.8c.07.25.65.42,1.56.45v.69Z" transform="translate(-52.75 -203)"/></g><g id="washington"><path id="W" class="cls-1" d="M182.59,280.88c-1.14.09-1.56.23-1.19,1.47l1.85,7.08h0l2.72-9.09h2.54l3,9.29h0c.56-1.88,1.25-4.53,1.85-7.17.27-1.21-.13-1.38-1.59-1.6v-.69h4.46v.69a1.53,1.53,0,0,0-1.58,1.2l-3,10.8h-3.44l-2.32-8.4h0l-2.5,8.4h-3.19l-2.59-9.69c-.51-1.78-1.1-2.14-2.06-2.28v-.69h7v.69Z" transform="translate(-52.75 -203)"/><path id="A-2" data-name="A" class="cls-1" d="M202.22,288.06l-1.59-4.37-1.7,4.37Zm-3.68,1-.58,1.72c-.29.83-.14,1.38.74,1.38v.69h-3.91v-.69a2.29,2.29,0,0,0,2-1.45c.47-.94,2.83-6.77,4.35-10.76h1.47c.85,2,3.57,8.51,4.31,10.45a2.71,2.71,0,0,0,2,1.76v.69h-6.39v-.69c.8,0,1.05-.49.76-1.29l-.69-1.81Z" transform="translate(-52.75 -203)"/><path id="S-4" data-name="S" class="cls-1" d="M217.72,283.17c-.56-1-1.21-2.43-2.63-2.43a1.51,1.51,0,0,0-1.36,1.7c0,1.29,1.11,1.7,3.31,3.42,1.78,1.36,2.3,2.48,2.3,3.66,0,2.35-2.21,3.55-5.29,3.55a10.52,10.52,0,0,1-4.15-.58.25.25,0,0,1-.13-.25v-3h.56c.42,1.07,1,3,2.75,3a2.11,2.11,0,0,0,2.1-2.16c0-1.2-.34-1.83-2.63-3.22-1.94-1.2-2.93-2.66-2.93-3.68,0-2,1.56-3.28,5.14-3.28a13.34,13.34,0,0,1,3.32.27.28.28,0,0,1,.18.25v2.68Z" transform="translate(-52.75 -203)"/><path id="H-2" data-name="H" class="cls-1" d="M226.29,290.92a2.66,2.66,0,0,0,.07.8c.07.25.65.42,1.56.45v.69h-7.08v-.69c.91,0,1.49-.2,1.56-.45a2.63,2.63,0,0,0,.07-.8v-8.8a2.63,2.63,0,0,0-.07-.8c-.07-.25-.65-.42-1.56-.45v-.69h7.08v.69c-.9,0-1.49.2-1.56.45a2.66,2.66,0,0,0-.07.8v3.3h4v-3.3a2.7,2.7,0,0,0-.07-.8c-.07-.25-.67-.42-1.56-.45v-.69h7.08v.69c-.89,0-1.49.2-1.56.45a2.71,2.71,0,0,0-.07.8v8.8a2.7,2.7,0,0,0,.07.8c.07.25.67.42,1.56.45v.69H228.7v-.69c.89,0,1.49-.2,1.56-.45a2.7,2.7,0,0,0,.07-.8v-4.38h-4v4.38Z" transform="translate(-52.75 -203)"/><path id="I-3" data-name="I" class="cls-1" d="M243.05,290.92a2.7,2.7,0,0,0,.07.8c.07.25.65.42,1.54.45v.69H237.6v-.69c.91,0,1.49-.2,1.56-.45a2.63,2.63,0,0,0,.07-.8v-8.8a2.64,2.64,0,0,0-.07-.8c-.07-.25-.65-.42-1.56-.45v-.69h7.06v.69c-.89,0-1.47.2-1.54.45a2.7,2.7,0,0,0-.07.8v8.8Z" transform="translate(-52.75 -203)"/><path id="N-1" class="cls-1" d="M256.57,292.86c-1.09-1.81-4.28-6.16-6.61-9.06h0v6a10.32,10.32,0,0,0,.05,1.54c.07.53.38.74,2.1.78v.69h-4.81v-.69c1.17,0,1.44-.25,1.51-.78a13.14,13.14,0,0,0,.07-1.54v-7.17a2.89,2.89,0,0,0-2.62-1.81v-.69h5.65c1.48,2.28,4.31,6,6.27,8.42h0v-5.42a13.17,13.17,0,0,0-.07-1.54c-.07-.53-.34-.74-2.1-.78v-.69h4.82v.69c-1.14,0-1.45.25-1.52.78a10.35,10.35,0,0,0-.05,1.54v9.67Z" transform="translate(-52.75 -203)"/><path id="G-3" data-name="G" class="cls-1" d="M267.91,286.7h7.21v.69c-.89,0-1.48.18-1.56.43a2.71,2.71,0,0,0-.07.8v3.62a18.14,18.14,0,0,1-4.95.83c-4.49,0-7.08-2.39-7.08-6.63,0-2.79,1.48-6.48,7.39-6.48a9.09,9.09,0,0,1,3.33.62c.51.16.71.42.71.71v2.34h-.56c-.65-1.32-1.59-2.94-3.41-2.94-2.07,0-3.52,2.32-3.53,5.61,0,4,1.7,6.05,2.66,6.05s2.06,0,2.06-2.48v-1.25a2.71,2.71,0,0,0-.07-.8c-.07-.25-.67-.42-2.14-.43v-.69Z" transform="translate(-52.75 -203)"/><path id="T-3" data-name="T" class="cls-1" d="M282.84,290.92a2.65,2.65,0,0,0,.07.8c.07.25.65.42,1.54.45v.69h-7.06v-.69c.91,0,1.49-.2,1.56-.45a2.71,2.71,0,0,0,.07-.8v-9.84h-1.34c-1.54,0-2,.83-2.74,1.87h-.56l.51-2.77H287l.51,2.77h-.56c-.78-1-1.21-1.87-2.73-1.87h-1.34v9.84Z" transform="translate(-52.75 -203)"/><path id="O-2" data-name="O" class="cls-1" d="M297.48,286.68c0-4.08-1.61-5.94-3.12-5.94-1.21,0-2.45,1.16-2.45,5.13s1.29,6.43,2.88,6.43c1.12,0,2.68-.74,2.68-5.62Zm-9.49-.31a6.74,6.74,0,0,1,7-6.41,6.26,6.26,0,0,1,6.39,6.34c0,4.73-4.08,6.78-7.06,6.78a6.26,6.26,0,0,1-6.36-6.7Z" transform="translate(-52.75 -203)"/><path id="N-2-2" data-name="N-2" class="cls-1" d="M312,292.86a111.86,111.86,0,0,0-6.61-9.06h0v6a10.34,10.34,0,0,0,.05,1.54c.07.53.38.74,2.1.78v.69h-4.8v-.69c1.16,0,1.43-.25,1.5-.78a13.16,13.16,0,0,0,.07-1.54v-7.17a2.88,2.88,0,0,0-2.61-1.81v-.69h5.63c1.48,2.28,4.31,6,6.27,8.42h0v-5.42a13.5,13.5,0,0,0-.07-1.54c-.07-.53-.35-.74-2.1-.78v-.69h4.82v.69c-1.14,0-1.45.25-1.52.78a10.34,10.34,0,0,0-.05,1.54v9.67Z" transform="translate(-52.75 -203)"/></g><g id="eastern"><path id="E-3" data-name="E" class="cls-1" d="M175.39,269.92c2.9-.12,4.79-.65,5-1.48a8.65,8.65,0,0,0,.24-2.6V237.11a8.65,8.65,0,0,0-.24-2.6c-.24-.83-2.13-1.36-5-1.48v-2.25h33.29v9.52h-1.83c-1.24-3.84-3.14-6.56-7.1-6.56h-6.62v15.43h4.73c3.72,0,5.32-3.31,5.14-6.27h1.83v15.55H203c0-2.84-1.18-6.33-5.14-6.33h-4.73v12.95c0,4,2,4.14,6,4.14,5.91,0,9.46-4.2,11.47-7.8h1.83l-1.77,10.76h-35.3v-2.25Z" transform="translate(-52.75 -203)"/><path id="A-3" data-name="A" class="cls-1" d="M237.5,256.5l-5.2-14.25-5.56,14.25Zm-12,3.31-1.89,5.62c-.95,2.72-.47,4.49,2.42,4.49v2.25H213.26v-2.25c1.83,0,4.67-1,6.5-4.73,1.54-3.07,9.22-22.11,14.19-35.12h4.79c2.78,6.44,11.65,27.79,14.07,34.11,1.06,2.84,4.14,5.73,6.68,5.73v2.25H238.62v-2.25c2.6,0,3.43-1.6,2.48-4.2l-2.25-5.91Z" transform="translate(-52.75 -203)"/><path id="S-5" data-name="S" class="cls-1" d="M286.51,240.54c-1.83-3.13-4-7.92-8.57-7.92-1.36,0-4.43,1.18-4.43,5.56,0,4.2,3.61,5.56,10.82,11.17,5.79,4.44,7.51,8.1,7.51,11.94,0,7.69-7.21,11.59-17.27,11.59-7.21,0-10.46-.71-13.54-1.89a.82.82,0,0,1-.41-.83v-9.7h1.83c1.36,3.49,3.25,9.87,9,9.87a6.9,6.9,0,0,0,6.86-7c0-3.9-1.12-6-8.57-10.52-6.33-3.9-9.58-8.69-9.58-12,0-6.62,5.08-10.7,16.79-10.7,4.37,0,8,.12,10.82.89a.91.91,0,0,1,.59.83v8.75Z" transform="translate(-52.75 -203)"/><path id="T-4" data-name="T" class="cls-1" d="M318.18,265.84a8.65,8.65,0,0,0,.24,2.6c.24.83,2.13,1.36,5,1.48v2.25H300.38v-2.25c3-.12,4.85-.65,5.09-1.48a8.7,8.7,0,0,0,.24-2.6v-32.1h-4.37c-5,0-6.39,2.72-8.93,6.09h-1.83l1.66-9h39.43l1.66,9h-1.83c-2.54-3.37-4-6.09-8.93-6.09h-4.37v32.1Z" transform="translate(-52.75 -203)"/><path id="E-2-2" data-name="E-2" class="cls-1" d="M333.34,269.92c2.9-.12,4.79-.65,5-1.48a8.65,8.65,0,0,0,.24-2.6V237.11a8.65,8.65,0,0,0-.24-2.6c-.24-.83-2.13-1.36-5-1.48v-2.25h33.29v9.52h-1.83c-1.24-3.84-3.13-6.56-7.09-6.56h-6.62v15.43h4.73c3.72,0,5.32-3.31,5.14-6.27h1.83v15.55H361c0-2.84-1.18-6.33-5.14-6.33h-4.73v12.95c0,4,2,4.14,6,4.14,5.91,0,9.46-4.2,11.47-7.8h1.83l-1.77,10.76h-35.3v-2.25Z" transform="translate(-52.75 -203)"/><path id="R-3" data-name="R" class="cls-1" d="M387.81,251.24h2.84c5.38,0,6.21-5.38,6.21-9.1,0-6.33-1.83-8.45-5.62-8.45h-3.43v17.56ZM370,230.78h26.55c7.92,0,13.78,3.37,13.78,11.06,0,4.32-3.31,9.16-9.52,10.76,4.55,6.21,9.64,12.36,14.43,18v1.54H402.71c-3.84,0-8-11.65-12.42-18h-2.48v11.7a8.7,8.7,0,0,0,.24,2.6c.24.83,2.13,1.36,5,1.48v2.25H370v-2.25c3-.12,4.85-.65,5.08-1.48a8.65,8.65,0,0,0,.24-2.6V237.11a8.65,8.65,0,0,0-.24-2.6c-.24-.83-2.13-1.36-5.08-1.48v-2.25Z" transform="translate(-52.75 -203)"/><path id="N-3" data-name="N" class="cls-1" d="M447.77,272.17c-3.55-5.91-14-20.1-21.58-29.56h-.12v19.75a33.55,33.55,0,0,0,.18,5c.24,1.71,1.24,2.42,6.86,2.54v2.25H417.44v-2.25c3.78-.12,4.67-.83,4.91-2.54a43.62,43.62,0,0,0,.24-5V238.94c-1.71-3.67-4.79-5.91-8.51-5.91v-2.25h18.39c4.85,7.45,14.07,19.51,20.46,27.49H453V240.59a43.63,43.63,0,0,0-.24-5c-.24-1.71-1.12-2.42-6.86-2.54v-2.25h15.73V233c-3.73.12-4.73.83-5,2.54a33.8,33.8,0,0,0-.18,5v31.57Z" transform="translate(-52.75 -203)"/></g></g><g id="eagle"><g id="l-leg"><path class="cls-1" d="M84.17,283.78s-7,10.21,0,11.73L80,298.34s-3-3.78-6.05-3.78a36.72,36.72,0,0,0,7.19-11.16l3,.38Z" transform="translate(-52.75 -203)"/></g><g id="l-foot"><path class="cls-1" d="M75.85,304.58s4,.57,4-4.16c0,0-2.84-2.08-3.22-1.89,0,0-10.59-8.33-14,1.13,0,0-.76,4,2.46,4.54,0,0-2.46-5.49,3.22-4.54,0,0,2.27-4.54,6.62.57,0,0,5.68,2.65.95,4.35Z" transform="translate(-52.75 -203)"/></g><g id="r-leg"><path class="cls-1" d="M85.5,282.83s6.24-1.33,11.16,2.46c0,0-.76-10-6.05-9.08,0,0-.95-.38-5.11,6.62Z" transform="translate(-52.75 -203)"/></g><g id="r-foot"><path class="cls-1" d="M86.06,284.34s-1.7,1.32-1.51,3c0,0-5.3,4.54,1.7,7.38,0,0-3.22-5.49,1.32-6.05,0,0,5.49,1.33,5.49,4.16a22.52,22.52,0,0,1-1.7,1.51s3.41,1.7,5.11-3.6c0,0-4.35-1.89-4-5.49,0,0-4.16-1.32-6.43-.95Z" transform="translate(-52.75 -203)"/></g><g id="head"><path class="cls-1" d="M62.42,276S62,281.7,67,284.34L66.39,280s9.84-4.73,14.75,1.7l3.6.19s3.22-7.19,6.62-7.57c0,0,4.35-.95,7,10.4a12.57,12.57,0,0,0,9.46-1.7s-22.7-27.24-45.4-7Zm7-1.32L66,276s1.13-4,6.05-3.78l-2.65,2.46Z" transform="translate(-52.75 -203)"/></g><g id="l-wing"><path class="cls-1" d="M77.36,229.67l3.41.76s-.76-8.32,1.7-8.7c0,0-3.22.19-5.11,7.95Z" transform="translate(-52.75 -203)"/><path class="cls-1" d="M73,229.11a12.76,12.76,0,0,1,6.62-11.54s-5.49,7.38-3,11.73L73,229.11Z" transform="translate(-52.75 -203)"/><path class="cls-1" d="M67.34,228.54s-2.27-13.62,7.95-17.78c0,0-4,5.86-3.22,8.13l1.32.57s-2.84,6.81-2.08,9.27l-4-.19Z" transform="translate(-52.75 -203)"/><path class="cls-1" d="M60.9,228S56,209.43,69,203c0,0-5.3,8.89-2.46,11.92,0,0-3.78,9.08-1.32,13.24L60.9,228Z" transform="translate(-52.75 -203)"/><path class="cls-1" d="M55.42,226.84s-9.08-13.62,6.24-21.38c0,0-2.08,4-3.59,4.54,0,0-2.46,13.43,1.13,17l-3.78-.19Z" transform="translate(-52.75 -203)"/></g><g id="r-wing"><path class="cls-1" d="M145.84,223.62s9.27-7.76,0-17.21c0,0,10.59-1.14,7.76,7,0,0,4.54,3.59-1.13,9.65,0,0-1.14,4.35-6.62,4.92v-4.35Z" transform="translate(-52.75 -203)"/><path class="cls-1" d="M145.27,231.19s13.43-6.05,14-19.11c0,0,3.78,2.46-.76,7.76,0,0,4.35,6.24-.76,10.22a17.66,17.66,0,0,1-12.49,6.81v-5.68Z" transform="translate(-52.75 -203)"/><path class="cls-1" d="M144.52,238.75s13.05-1.7,16.84-9.84c0,0-3.22,6.62-2.08,7.95,0,0-1.14,4.92-14.76,5.68v-3.78Z" transform="translate(-52.75 -203)"/><path class="cls-1" d="M144,244s11.16.76,16.65-5.48c0,0,.57,4.54-7.57,9.08,0,0-6.24,1.7-9.27-.38L144,244Z" transform="translate(-52.75 -203)"/><path class="cls-1" d="M143.19,248.78s4.16,2.84,12.49,1.51c0,0-6.43,4.54-5.11,5.11,0,0-7.57.19-7.57-2.27l.19-4.35Z" transform="translate(-52.75 -203)"/><path class="cls-1" d="M142.63,255.21s.76,2.46,6.81,1.89c0,0,0,3.59-7,1.7l.19-3.6Z" transform="translate(-52.75 -203)"/></g><g id="U-2" data-name="U"><path class="cls-1" d="M98.36,287.18s9.46-1.13,9.84-2.27c0,0,7.76,11.35,11.92,8.32,0,0,2.46-.19-7.57-10,0,0,4.54-1.33,6.24-3.6,0,0,3.59,3.78,21.75,8.13a95,95,0,0,1-30.46,15.14s-3.41-10.78-11.73-15.7Z" transform="translate(-52.75 -203)"/></g><g id="W-2" data-name="W"><path class="cls-1" d="M93.63,269.78l11-10.22s3.78,12.11,7.95,11.16c0,0-.19-6.62-4.73-14.94,0,0,6.81-12.3,16.27-17.78,0,0,.57,19.67,3.22,16.27a42.78,42.78,0,0,0,.76-17.21s1.89,2.46,15.13-10c0,0-4.54,31.78-3.21,35.56a20,20,0,0,0-5.49,5.3s-2.84,3.41-5.11,4c0,0-1.7-5.11-9.08-10.41,0,0,1.32,11.73,2.84,13.43,0,0-8.51,6.43-12.49,7,0,0-8.89-10.22-17-12.11Z" transform="translate(-52.75 -203)"/></g><g id="E-4" data-name="E"><path class="cls-1" d="M77.93,266s-7.76-22.89-23.84-37.27l25.92,3,8.32,10.59s-11.16-4.54-11.92-.38,12.86,3,12.86,3l4.54,9.46s-11.73-2.08-10.4,1.51,11.35,2.46,11.35,2.46,1.89,6.62,1.51,7.76L77.93,266Z" transform="translate(-52.75 -203)"/></g></g></svg>
